<svg xmlns="http://www.w3.org/2000/svg" viewBox="0 0 78.98 59.92"><defs><style>.cls-1{fill:#aa4f2c;}</style></defs><title>ham-menu</title><g id="Layer_2" data-name="Layer 2"><g id="Layer_1-2" data-name="Layer 1"><g id="menubar"><path class="cls-1" d="M77.4,32.68H33.17c-.87,0-1.58-1.22-1.58-2.72h0c0-1.5.71-2.72,1.58-2.72H77.4c.88,0,1.58,1.22,1.58,2.72h0C79,31.46,78.28,32.68,77.4,32.68Z"/><path class="cls-1" d="M77.4,5.45H1.58C.71,5.45,0,4.23,0,2.72H0C0,1.22.71,0,1.58,0H77.4C78.28,0,79,1.22,79,2.72h0C79,4.23,78.28,5.45,77.4,5.45Z"/><path class="cls-1" d="M77.4,59.92H1.58C.71,59.92,0,58.7,0,57.2H0c0-1.51.71-2.73,1.58-2.73H77.4c.88,0,1.58,1.22,1.58,2.73h0C79,58.7,78.28,59.92,77.4,59.92Z"/></g></g></g></svg>