<svg xmlns="http://www.w3.org/2000/svg" viewBox="0 0 334.7 273.32"><defs><style>.cls-1{fill:none;stroke:#cc864f;stroke-miterlimit:10;stroke-width:2.79px;}.cls-2{fill:#ae4f2b;}.cls-3{fill:#cc8650;}</style></defs><title>logo</title><g id="Layer_2" data-name="Layer 2"><g id="Layer_1-2" data-name="Layer 1"><path class="cls-1" d="M313.4,66a135.28,135.28,0,0,1-211,166.37"/><path class="cls-1" d="M102.44,41A135.33,135.33,0,0,1,267.79,20.74"/><path class="cls-1" d="M329.07,37.88a33,33,0,1,1-33-33A33,33,0,0,1,329.07,37.88Z"/><path class="cls-2" d="M37.07,100.29a27.11,27.11,0,0,1-7.56,2.91,37.26,37.26,0,0,1-8,.85,22.93,22.93,0,0,1-8.74-1.62A19.41,19.41,0,0,1,6,97.9,20.79,20.79,0,0,1,1.59,91,23.78,23.78,0,0,1,0,82.16,23.46,23.46,0,0,1,1.59,73.4,20.91,20.91,0,0,1,6,66.48a20,20,0,0,1,6.8-4.56,22.57,22.57,0,0,1,8.74-1.65q9.29,0,15,5.77L33.72,69a12.56,12.56,0,0,0-2.33-2.09,16,16,0,0,0-3-1.64A18.2,18.2,0,0,0,25,64.19a16.12,16.12,0,0,0-3.47-.39,18.15,18.15,0,0,0-7.33,1.42A16.23,16.23,0,0,0,8.65,69.1a17.13,17.13,0,0,0-3.53,5.83,21.73,21.73,0,0,0,0,14.47,17.13,17.13,0,0,0,3.53,5.83,16.37,16.37,0,0,0,5.56,3.88,18.32,18.32,0,0,0,7.33,1.41,34.87,34.87,0,0,0,6.29-.53,16.19,16.19,0,0,0,5.36-1.94v-14h-10V80.51H37.07Z"/><path class="cls-3" d="M16.27,136.35,2,116.57H6.62l12,17,11.83-17H35.1L21,136.35l15.47,21.88H31.63L18.45,139.41,5.27,158.23H.62Z"/><path class="cls-2" d="M.9,173.24H14.56a24.41,24.41,0,0,1,7.69,1.28,21.32,21.32,0,0,1,7,3.86,19.75,19.75,0,0,1,5,6.45,22,22,0,0,1,0,18,19.63,19.63,0,0,1-5,6.42,21.35,21.35,0,0,1-7,3.87,24.39,24.39,0,0,1-7.69,1.27H.9Zm4.19,37.42h8.3a20.82,20.82,0,0,0,8.11-1.46,16.79,16.79,0,0,0,5.72-3.8,15.46,15.46,0,0,0,3.4-5.38,17.66,17.66,0,0,0,0-12.43,15.42,15.42,0,0,0-3.4-5.37,17,17,0,0,0-5.72-3.81A20.83,20.83,0,0,0,13.39,177H5.09Z"/><path class="cls-2" d="M72.6,61.33H83.54c.55,0,1.3,0,2.24.06a24.15,24.15,0,0,1,3.06.35,18.4,18.4,0,0,1,3.35.95,9.3,9.3,0,0,1,3.06,1.88,9.61,9.61,0,0,1,2.24,3.12,10.71,10.71,0,0,1,.88,4.59,10.43,10.43,0,0,1-1,4.94,9.61,9.61,0,0,1-2.59,3.15,10.86,10.86,0,0,1-3.44,1.79,21.9,21.9,0,0,1-3.59.83l12.12,20H95.43L83.72,83.22H76.48V103H72.6Zm3.88,18.36h8.24a13.56,13.56,0,0,0,5-.76,8.09,8.09,0,0,0,3-1.89,6,6,0,0,0,1.45-2.41,7.49,7.49,0,0,0,0-4.71,6,6,0,0,0-1.45-2.41,8.21,8.21,0,0,0-3-1.88,13.54,13.54,0,0,0-5-.77H76.48Z"/><path class="cls-2" d="M58.74,116.57h4l10.36,36.9h.12l10.53-36.9h4.94l10.53,36.9h.12l10.36-36.9h4l-12.12,41.66H96.81L86.28,121.16h-.12L75.63,158.23H70.86Z"/><path class="cls-2" d="M94.54,179.86a10.09,10.09,0,0,0-3.42-3,10.57,10.57,0,0,0-5.06-1.13,10.8,10.8,0,0,0-3.08.46,8.94,8.94,0,0,0-2.84,1.43A7.32,7.32,0,0,0,78.07,180a7.15,7.15,0,0,0-.78,3.43,6.35,6.35,0,0,0,.75,3.25,7.15,7.15,0,0,0,2,2.18,11.73,11.73,0,0,0,2.84,1.48c1.06.39,2.17.77,3.33,1.16,1.43.47,2.87,1,4.32,1.51a15.47,15.47,0,0,1,3.91,2.12,10.37,10.37,0,0,1,2.84,3.31,10.57,10.57,0,0,1,1.1,5.09,11.19,11.19,0,0,1-1.18,5.31,11,11,0,0,1-3,3.69,12.59,12.59,0,0,1-4.28,2.15,17.24,17.24,0,0,1-4.85.7A18.79,18.79,0,0,1,81.3,215a17.09,17.09,0,0,1-3.55-1.13A14,14,0,0,1,74.62,212a13.5,13.5,0,0,1-2.56-2.67l3.6-2.67a11,11,0,0,0,3.75,3.69,10.66,10.66,0,0,0,5.66,1.48,11,11,0,0,0,3.2-.5,8.78,8.78,0,0,0,2.93-1.51,8.19,8.19,0,0,0,2.15-2.49,7.69,7.69,0,0,0,0-7,7.48,7.48,0,0,0-2.23-2.39,13.47,13.47,0,0,0-3.2-1.59c-1.2-.43-2.46-.86-3.78-1.28s-2.69-.91-4-1.46a13.32,13.32,0,0,1-3.55-2.12,9.82,9.82,0,0,1-2.53-3.22,10.46,10.46,0,0,1-1-4.71,10.32,10.32,0,0,1,1.19-5.11,10.82,10.82,0,0,1,3.1-3.54,13.16,13.16,0,0,1,4.25-2,17.46,17.46,0,0,1,4.59-.64,15.79,15.79,0,0,1,7.14,1.49,12.14,12.14,0,0,1,4.48,3.51Z"/><path class="cls-2" d="M141.19,61.33h12a22.47,22.47,0,0,1,4.56.5,13.19,13.19,0,0,1,4.35,1.74A9.74,9.74,0,0,1,165.35,67a10.51,10.51,0,0,1,1.26,5.39,10.74,10.74,0,0,1-1,4.88,9.44,9.44,0,0,1-2.76,3.38,11.78,11.78,0,0,1-4,2,16.85,16.85,0,0,1-4.74.65h-9V103h-3.89Zm3.89,18.36h8.82a14.07,14.07,0,0,0,3.24-.38A8.52,8.52,0,0,0,160,78.07a6.45,6.45,0,0,0,2-2.26,7.21,7.21,0,0,0,.76-3.47,6.86,6.86,0,0,0-.79-3.42,7.2,7.2,0,0,0-2.06-2.32A8.57,8.57,0,0,0,157,65.27a13.66,13.66,0,0,0-3.29-.41h-8.59Z"/><path class="cls-2" d="M140.69,116.57h25.48v3.53H144.58v14.83h20.24v3.53H144.58V154.7h22.53v3.53H140.69Z"/><path class="cls-2" d="M166.92,180.68a15,15,0,0,0-5.11-3.52,17.43,17.43,0,0,0-6.8-1.25,17,17,0,0,0-7.12,1.45,16.21,16.21,0,0,0-5.37,3.92,17.47,17.47,0,0,0-3.4,5.71,20.28,20.28,0,0,0,0,13.69,17.17,17.17,0,0,0,3.4,5.69,16.25,16.25,0,0,0,5.37,3.88A16.87,16.87,0,0,0,155,211.7a25.52,25.52,0,0,0,6.39-.75,16.56,16.56,0,0,0,4.71-1.92V196.54h-9.59v-3.72h13.77V211.4a26.7,26.7,0,0,1-7.26,3,32.69,32.69,0,0,1-8.08,1,22.29,22.29,0,0,1-8.6-1.63,20.15,20.15,0,0,1-6.79-4.5,20.55,20.55,0,0,1-4.45-6.83,22.92,22.92,0,0,1-1.6-8.65,22.6,22.6,0,0,1,1.63-8.66,20.78,20.78,0,0,1,4.5-6.83,21,21,0,0,1,6.8-4.5,22.09,22.09,0,0,1,8.51-1.63,23,23,0,0,1,8.6,1.48,18.53,18.53,0,0,1,6.28,4.1Z"/><path class="cls-2" d="M206.05,61.33h3.89V79.69h23.3V61.33h3.88V103h-3.88V83.22h-23.3V103h-3.89Z"/><path class="cls-2" d="M208,116.57h12a31.07,31.07,0,0,1,4.77.38,11.49,11.49,0,0,1,4.32,1.59,9.2,9.2,0,0,1,3.12,3.36,11.6,11.6,0,0,1,1.21,5.68,8.58,8.58,0,0,1-1.89,5.53,9.24,9.24,0,0,1-5.59,3.12v.11a11.37,11.37,0,0,1,3.77,1,9.17,9.17,0,0,1,4.85,5.27,11.46,11.46,0,0,1,.68,4,11.12,11.12,0,0,1-1.38,5.86,10.66,10.66,0,0,1-3.47,3.56,13.37,13.37,0,0,1-4.54,1.76,23.54,23.54,0,0,1-4.56.47H208Zm3.88,18h8.06a13.68,13.68,0,0,0,4.89-.74,8.62,8.62,0,0,0,2.94-1.79,5.44,5.44,0,0,0,1.41-2.27,7.71,7.71,0,0,0,.35-2.2,7.94,7.94,0,0,0-.73-3.62,6.15,6.15,0,0,0-2-2.3,7.89,7.89,0,0,0-2.89-1.2,16.2,16.2,0,0,0-3.47-.36h-8.59Zm0,20.12h8.89a15.29,15.29,0,0,0,5.5-.82,8.4,8.4,0,0,0,3.2-2.06,6.36,6.36,0,0,0,1.5-2.62,9.26,9.26,0,0,0,.39-2.5,8.22,8.22,0,0,0-.89-3.94,7.77,7.77,0,0,0-2.29-2.68,9.29,9.29,0,0,0-3.21-1.5,14.39,14.39,0,0,0-3.62-.47h-9.47Z"/><path class="cls-2" d="M234,208.27h.12v-35h4.18v41.13h-5.23L209.15,179H209v35.38h-4.18V173.24h5.22Z"/></g></g></svg>